# xmcd CD database file
#
# Track frame offsets:
#	151
#	19057
#	38650
#	61860
#	83260
#	92155
#	115051
#	140656
#	164147
#	190258
#	210558
#	240458
#	260056
#
# Disc length: 3856 seconds
#
# Revision: 1
# Processed by: cddbd v1.5.2PL0 Copyright (c) Steve Scherf et al.
# Submitted via: CDex 1.70beta2
#
DISCID=ab0f0e0d
DTITLE=Vienna Art Orchestra - Art and Fun Remixed CD 2/2 
DYEAR=2002
DGENRE=Jazz
TTITLE0=Artful Noise
TTITLE1=Son Of Sun 
TTITLE2=Time To Sin
TTITLE3=Gone Movies
TTITLE4=Smart Shades
TTITLE5=Heartbeat
TTITLE6=Trance Versus Dance
TTITLE7=Out For Lunch
TTITLE8=Dark Water Punch
TTITLE9=Drunk With Consuela
TTITLE10=Funkloch
TTITLE11=Funny Accent
TTITLE12=Marquis De Satie
EXTD=YEAR: 2002
EXTT0=
EXTT1=
EXTT2=
EXTT3=
EXTT4=
EXTT5=
EXTT6=
EXTT7=
EXTT8=
EXTT9=
EXTT10=
EXTT11=
EXTT12=
PLAYORDER=
